<svg xmlns="http://www.w3.org/2000/svg" width="1024" height="1024" viewBox="0 0 1024 1024">
  <defs>
    <linearGradient id="g" x1="0" y1="0" x2="1" y2="1">
      <stop offset="0" stop-color="#FF9F45"/>
      <stop offset="0.55" stop-color="#FB6340"/>
      <stop offset="1" stop-color="#E11D48"/>
    </linearGradient>
  </defs>
  <rect x="0" y="0" width="1024" height="1024" rx="232" fill="url(#g)"/>
  <g transform="translate(232,232) scale(23.333)" fill="none" stroke="#ffffff" stroke-width="1.7" stroke-linecap="round" stroke-linejoin="round">
    <path d="M18 17.5a2.5 2.5 0 1 1-4 2.03V12"/>
    <path d="M6 12H4a2 2 0 0 1-2-2V5a2 2 0 0 1 2-2h16a2 2 0 0 1 2 2v5a2 2 0 0 1-2 2h-2"/>
    <path d="M6 8h12"/>
    <path d="M6.6 15.572A2 2 0 1 0 10 17v-5"/>
  </g>
</svg>
